<?xml version="1.0" encoding="UTF-8"?>
<svg width="128" height="128" version="1.1" viewBox="0 0 128 128" xmlns="http://www.w3.org/2000/svg"><path d="m2.44 33.93h7.38v0.63q-0.54 0.54-0.72 1.17-0.09 0.63-0.09 2.16v46.71h27v5.4h-33.57zm50.13 59.85-5.31-2.61 28.17-61.02 5.4 2.79zm56.16-2.88q-5.49 0-9.9-1.8-4.32-1.8-7.65-5.31l3.24-5.67 0.36-0.81 0.63 0.36q0.18 0.63 0.45 1.44 0.27 0.72 1.26 1.8 2.34 1.98 5.4 3.15 3.15 1.17 7.11 1.17 2.52 0 4.59-0.72 2.16-0.81 3.69-2.07 1.62-1.35 2.43-3.06 0.9-1.8 0.9-3.78 0-1.53-0.36-2.79-0.27-1.26-1.17-2.25-0.81-1.08-2.25-2.07-1.44-1.08-3.69-2.25t-5.4-2.52q-5.85-2.25-9.27-4.86-3.33-2.7-4.77-5.67-1.35-2.97-1.35-6.12 0-4.14 2.07-7.2 2.07-3.15 5.85-4.86 3.87-1.8 9.18-1.8 3.06 0 5.85 0.9 2.88 0.81 5.31 2.34 2.52 1.53 4.41 3.78l-4.05 5.4-0.54-0.36q-0.09-0.72-0.36-1.44t-1.26-1.8q-2.16-2.07-4.59-2.79-2.43-0.81-5.76-0.81-2.25 0-4.05 0.63-1.71 0.63-2.97 1.8t-1.98 2.7q-0.63 1.44-0.63 3.06 0 1.53 0.36 2.79t1.26 2.43 2.43 2.34q1.62 1.17 3.96 2.34 2.43 1.17 5.85 2.52 4.14 1.71 6.84 3.42 2.79 1.62 4.32 3.51 1.62 1.8 2.25 3.96 0.72 2.16 0.72 4.77 0 3.87-1.98 7.65-1.89 3.69-6.03 6.12t-10.71 2.43z" fill="#6ad1c8" aria-label="L/S"/></svg>
